<svg role="img" aria-hidden="true" focusable="false" xmlns="http://www.w3.org/2000/svg" viewBox="0 0 900.75 292"><defs/><path fill="#fff" d="M166.31 54c-38.63 0-54.09 25.93-54.09 54.81 0 30 15.23 56 54.09 56s54-27.16 53.93-54.19C220.15 77.67 203.49 54 166.31 54zm-23.41 56.45c.94-38.63 30.62-38.6 40.53-24.75 9 12.61 10.89 55.73-17.12 55.42-12.9-.12-23.03-8.87-23.41-30.67zM479.68 138V82h20V57.7h-20V28.36h-30.9V57.7H433.1V82h15.68v52.79c0 30 20.92 47.84 43 51.53l9.22-24.84c-12.87-1.64-21.2-11.25-21.32-23.48zM323.75 129.11V87a43.67 43.67 0 00-.24-4.38c-2.68-34-50.95-33.92-88.34-20.87L246 83.53C270.32 72 284.89 75 290 80.64l.38.45a.21.21 0 000 .06c2.6 3.51 2 9 2 13.39-31.81 0-65.67 4.23-65.67 39.12 0 26.52 33.23 43.59 68 18.3l5.16 12.44h29.76c-2.7-14.6-5.88-27.11-5.88-35.29zm-31.13-.24c-24.48 27.39-46.89 1.61-23.94-9.64 6.76-2.3 15.93-2.4 23.94-2.4zM371.25 84.77c0-10.36 16.6-15.21 42.77-3.26l9.05-22c-35.22-10.65-83.32-11.61-83.64 25.24-.14 17.65 11.18 27.15 27.49 33.21 11.29 4.2 27.6 6.38 27.55 15.37-.06 11.75-25.34 13.55-48.35-2.25l-9.3 23.83c31.38 15.62 89.75 16.06 89.44-23.09-.26-38.68-55.01-32.05-55.01-47.05zM99.16 1l-44.8 124.43-21.45-67.19H1L36.72 150a33.41 33.41 0 010 24.3c-4 10.24-10.64 19-26.83 21.18v27.21c31.53 0 48.58-19.39 63.79-61.88L133.3 1zM143.2 232.57q0 16.88-9.37 25.81t-27 8.93H87.76v-68.18h21.08q16.27 0 25.32 8.77t9.04 24.67zm-11.75.37q0-24.48-22.89-24.48h-9.65v49.47h7.92q24.63 0 24.62-24.99zM178.25 268.24q-12 0-18.82-7t-6.78-19.33q0-12.63 6.29-19.86t17.3-7.23q10.22 0 16.14 6.2t5.92 17.07V244h-34.37q.24 7.51 4.06 11.54t10.77 4a39.44 39.44 0 008.51-.87 44.13 44.13 0 008.47-2.87v8.91a33.57 33.57 0 01-8.12 2.71 50.43 50.43 0 01-9.37.82zm-2-45.14a11 11 0 00-8.37 3.31c-2.09 2.21-3.35 5.43-3.75 9.65h23.41q-.09-6.39-3.08-9.67a10.53 10.53 0 00-8.22-3.29zM221.55 267.31L202 215.73h11.57l10.49 30a59.19 59.19 0 013.26 12.21h.37a82.86 82.86 0 013.27-12.21l10.49-30h11.66l-19.68 51.58zM282.47 268.24q-12 0-18.82-7t-6.78-19.33q0-12.63 6.3-19.86t17.29-7.23q10.21 0 16.14 6.2t5.92 17.07V244h-34.37q.24 7.51 4.06 11.54t10.77 4a39.37 39.37 0 008.51-.87 44.13 44.13 0 008.47-2.87v8.91a33.57 33.57 0 01-8.12 2.71 50.43 50.43 0 01-9.37.82zm-2-45.14a11 11 0 00-8.37 3.31q-3.13 3.32-3.75 9.65h23.41q-.09-6.39-3.08-9.67a10.53 10.53 0 00-8.22-3.29zM325 267.31h-11v-72.56h11zM385.43 241.43q0 12.63-6.48 19.72t-18.05 7.09a24.69 24.69 0 01-12.77-3.24 21.53 21.53 0 01-8.54-9.37 32 32 0 01-3-14.17q0-12.56 6.44-19.59t18.14-7q11.19 0 17.71 7.2t6.55 19.36zm-37.54 0q0 17.85 13.2 17.86t13.06-17.86q0-17.69-13.15-17.68-6.9 0-10 4.57t-3.11 13.11zM423.23 268.24q-9.8 0-15.21-7h-.65c.44 4.35.65 7 .65 7.92v21.13h-10.95v-74.56h8.86q.38 1.46 1.54 6.9h.53q5.13-7.83 15.39-7.83 9.66 0 15 7t5.39 19.64q0 12.63-5.48 19.72t-15.07 7.08zm-2.66-44.49q-6.52 0-9.54 3.83t-3 12.21v1.64q0 9.42 3 13.63t9.75 4.23a9.89 9.89 0 008.76-4.67q3.08-4.67 3.08-13.29t-3.05-13.12a10.2 10.2 0 00-9-4.46zM478.13 268.24q-12 0-18.81-7t-6.78-19.33q0-12.63 6.29-19.86t17.3-7.23q10.22 0 16.13 6.2t5.93 17.07V244h-34.37q.24 7.51 4.06 11.54t10.77 4a39.51 39.51 0 008.51-.87 44 44 0 008.46-2.87v8.91a33.5 33.5 0 01-8.11 2.71 50.55 50.55 0 01-9.38.82zm-2-45.14a11 11 0 00-8.37 3.31q-3.15 3.32-3.75 9.65h23.4q-.09-6.39-3.07-9.67a10.54 10.54 0 00-8.21-3.29zM535.84 214.8a26.43 26.43 0 015.46.47l-1.08 10.21a20.32 20.32 0 00-4.85-.56 14 14 0 00-10.65 4.29 15.5 15.5 0 00-4.08 11.14v27h-11v-51.62h8.58l1.45 9.1h.56a20.51 20.51 0 016.77-7.33 15.91 15.91 0 018.84-2.7zM599.91 268.24q-9.78 0-15.2-7h-.65q.65 6.53.65 7.92v21.13h-11v-74.56h8.86c.25 1 .77 3.27 1.54 6.9h.56q5.13-7.83 15.39-7.83 9.64 0 15 7t5.38 19.64q0 12.63-5.47 19.72t-15.06 7.08zm-2.65-44.49c-4.36 0-7.53 1.28-9.54 3.83s-3 6.62-3 12.21v1.64q0 9.42 3 13.63t9.74 4.23a9.89 9.89 0 008.77-4.67q3.07-4.67 3.08-13.29t-3.06-13.12a10.18 10.18 0 00-8.99-4.46zM678 241.43q0 12.63-6.48 19.72t-18 7.09a24.7 24.7 0 01-12.78-3.24 21.51 21.51 0 01-8.53-9.37 31.91 31.91 0 01-3-14.17q0-12.56 6.44-19.59t18.14-7q11.19 0 17.72 7.2t6.49 19.36zm-37.53 0q0 17.85 13.19 17.86t13.06-17.86q0-17.69-13.15-17.68-6.9 0-10 4.57t-3.06 13.11zM715.84 214.8a26.43 26.43 0 015.46.47l-1.08 10.21a20.32 20.32 0 00-4.85-.56 14 14 0 00-10.65 4.29 15.5 15.5 0 00-4.08 11.14v27h-11v-51.62h8.58l1.45 9.1h.55a20.53 20.53 0 016.7-7.33 15.91 15.91 0 018.92-2.7zM749.11 259.38a26.58 26.58 0 008-1.26v8.25a22.09 22.09 0 01-4.68 1.33 32.2 32.2 0 01-6 .54q-15.57 0-15.57-16.42V224h-7v-4.85l7.56-4 3.73-10.91h6.76v11.47h14.69V224h-14.67v27.61q0 4 2 5.85a7.23 7.23 0 005.18 1.92zM798.75 267.31l-2.19-7.19h-.37a21.23 21.23 0 01-7.51 6.42 23.83 23.83 0 01-9.7 1.7q-7.61 0-11.87-4.11t-4.26-11.61q0-8 5.92-12t18-4.43l8.91-.28V233c0-3.29-.77-5.76-2.31-7.39s-3.92-2.45-7.16-2.45a24.7 24.7 0 00-7.6 1.17 57.67 57.67 0 00-7 2.75l-3.55-7.83a38.13 38.13 0 019.19-3.34 42.41 42.41 0 019.42-1.14q9.84 0 14.85 4.29t5 13.48v34.74zm-16.32-7.47a13.58 13.58 0 009.58-3.33q3.62-3.33 3.62-9.35v-4.48L789 243q-7.74.28-11.26 2.59a7.89 7.89 0 00-3.52 7.07 6.92 6.92 0 002 5.34c1.42 1.22 3.47 1.84 6.21 1.84zM831.88 267.31h-11v-72.56h11zM896.45 194.75h-12.69l-27.52 72.56h12.53l27.68-72.56z"/></svg>